<svg width="559" height="645" viewBox="0 0 559 645" fill="none" xmlns="http://www.w3.org/2000/svg">
<path d="M275.397 372.039L272.777 462.676L187.244 505.201L186.999 416.7L275.397 372.039Z" fill="#E4DEDE" stroke="black" stroke-width="3"/>
<path d="M362.65 136.125L362.65 222.219L278.204 267.147L276.579 182.266L362.65 136.125Z" fill="#E4DEDE" stroke="black" stroke-width="3"/>
<path d="M420.127 227.629L417.929 507.187L327.27 550.725L330.231 184.982L420.127 227.629Z" fill="#CCE0C9" stroke="black" stroke-width="3"/>
<path d="M332.023 182.529L417.762 135.293L509.405 175.781L421.196 225.428L332.023 182.529Z" fill="#E66D6D" stroke="black" stroke-width="3"/>
<path d="M188.934 507.704L273.758 465.292L358.462 506.682L270.292 554.008L188.934 507.704Z" fill="#E66D6D" stroke="black" stroke-width="3"/>
<path d="M50.0044 465.184L137.269 421.289L227.381 464.176L136.262 511.423L50.0044 465.184Z" fill="#E66D6D" stroke="black" stroke-width="3"/>
<path d="M329.104 553.155L419.26 509.283L507.88 551.184L417.246 598.43L329.104 553.155Z" fill="#E66D6D" stroke="black" stroke-width="3"/>
<path d="M47.4179 92.5209L133.854 47.8177L220.892 87.7291L131.095 136.266L47.4179 92.5209Z" fill="#E66D6D" stroke="black" stroke-width="3"/>
<path d="M278.173 372.079L361.802 416.751L360.294 504.25L275.281 462.697L278.173 372.079Z" fill="#FFEDBE" stroke="black" stroke-width="3"/>
<path d="M129.771 138.543L136.229 418.702L48.2344 462.7L45.7672 95.092L129.771 138.543Z" fill="#CCE0C9" stroke="black" stroke-width="3"/>
<path d="M422.744 228.001L420.744 506.673L509.65 548.753L510.743 178.683L422.744 228.001Z" fill="#FFEDBE" stroke="black" stroke-width="3"/>
<path d="M132.771 138.504L139.229 419.142L229.209 462.197L222.793 90.1054L132.771 138.504Z" fill="#FFEDBE" stroke="black" stroke-width="3"/>
<path d="M186.789 138.053L273.626 180.996L275.197 267.404L188.198 227.603L186.789 138.053Z" fill="#CCE0C9" stroke="black" stroke-width="3"/>
<path d="M188.547 135.612L275.432 90.9758L361.002 133.674L275.728 179.925L188.547 135.612Z" fill="#E66D6D" stroke="black" stroke-width="3"/>
</svg>